<svg xmlns="http://www.w3.org/2000/svg" xmlns:xlink="http://www.w3.org/1999/xlink" width="1000" height="500">
  <defs>
    <linearGradient xlink:href="#a" id="b" x1="250" x2="250" y1="95.5" y2="404.5" gradientTransform="rotate(180 251.8 253.8) scale(1.03225)" gradientUnits="userSpaceOnUse"/>
    <linearGradient id="a">
      <stop offset="0" stop-color="#00ff8f"/>
      <stop offset="1" stop-color="#00a1ff"/>
    </linearGradient>
    <linearGradient xlink:href="#a" id="c" x1="250" x2="250" y1="119.8" y2="327.7" gradientTransform="translate(-145 -104.1) scale(1.58025)" gradientUnits="userSpaceOnUse"/>
  </defs>
  <path fill="#fff" d="M0 0h1000v500H0z"/>
  <path fill="#fff" stroke="url(#b)" stroke-width="26" d="M66.4 95.5h367.2v308.9H66.4z" paint-order="stroke"/>
  <path fill="url(#c)" d="M91.8 119.8h316.5v207.9H91.8z" paint-order="fill"/>
  <path fill="#fff" d="M333.4 169.2a24 24 0 0 1 24 24.1v72.5a24 24 0 0 1-24 24.1s-31.1 2.4-48.8-4.3c-21.5-8-18.6-37-34.6-37.3-16 .3-13 29.4-34.6 37.4-17.7 6.6-48.8 4.3-48.8 4.3a24 24 0 0 1-24-24.1v-72.5a24 24 0 0 1 24-24.1Zm-51.5 52a23.1 23.1 0 1 0 46.2 0 23.1 23.1 0 0 0-46.2 0Zm-87-23a23.1 23.1 0 1 0 0 46.2 23.1 23.1 0 0 0 0-46.3Z"/>
  <path d="M556.2 266.6V259l-15.3-5-1.9-.7 1.9-.7 15.3-5.2V240l-24.7 10.2v6.3Zm28.5-4.3q0 .7-.3 1.3-.4.6-1 1-.8.5-2 .7-1 .3-2.5.3-1.3 0-2.5-.2-1.2-.3-2-.8-1-.6-1.6-1.5-.6-.8-.6-2h-7.4q0 1.8.9 3.6t2.6 3.3q1.8 1.4 4.4 2.3 2.6.9 6 .9 3 0 5.6-.7 2.5-.7 4.3-2 1.7-1.1 2.7-2.8 1-1.7 1-3.7 0-2.2-1-3.7-1-1.6-2.7-2.7-1.7-1.1-4-1.8t-5-1.2q-2-.2-3.2-.6-1.2-.4-2-.9-.6-.4-1-1-.2-.5-.2-1.2t.3-1.3q.3-.6 1-1 .6-.5 1.7-.8 1-.3 2.5-.3 1.6 0 2.8.4 1.2.5 1.9 1.1.5.6.7 1.2.3.7.3 1.4h7.7q0-2-.9-3.8-.9-1.8-2.6-3.1-1.8-1.3-4.3-2-2.5-.8-5.6-.8-3 0-5.4.8-2.4.7-4.1 2-1.7 1.3-2.6 3-.9 1.7-.9 3.5 0 2 1 3.4.8 1.5 2.4 2.6 1.5 1.2 3.7 2t4.8 1.3l3.5.8 2.2.8q.8.5 1.1 1 .3.5.3 1.2Zm29-29.2H606v7.4H599v5.7h6.9v13.7q0 3 .7 5 .8 2.2 2.3 3.6 1.4 1.4 3.4 2 2 .7 4.5.7l2.6-.1 2.6-.4q1.2-.2 2.3-.6 1-.3 1.9-.8l-.8-5.3-1.3.3-1.5.2-1.8.3H619q-1.3 0-2.3-.2-1-.3-1.6-1-.7-.6-1.1-1.7-.4-1.1-.4-2.8v-13H625v-5.6h-11.3Zm34.6 38q4.4 0 7.6-1.6 3.2-1.7 4.7-3.8l-3.9-4.2q-1.3 1.7-3.5 2.6-2.1.8-4.4.8-1.6 0-3-.5-1.3-.5-2.4-1.4-1-.9-1.6-2-.6-1-1-2.9h20.4v-3.3q0-3.4-1-6-.8-2.8-2.6-4.8t-4.3-3q-2.6-1-5.8-1-3.2 0-5.8 1-2.7 1.2-4.7 3.3-2 2-3 4.9-1 2.8-1 6.3v1.1q0 3 1 5.7 1.1 2.6 3.1 4.6 2 2 5 3.1 2.8 1.2 6.2 1.2Zm-.9-25q1.5 0 2.6.5t2 1.3q.7.8 1.1 1.9.5 1 .5 2.3v.6h-12.7q.3-1.5.8-2.7.6-1.2 1.4-2 .8-.9 2-1.4 1-.4 2.3-.4Zm42.1-6.2q-3 0-5.5 1.5-2.6 1.4-4.4 4l-.1-.7-.3-4.2H672v30.1h7.7v-18.1q.5-1.3 1.4-2.2.8-1 1.9-1.6 1-.5 2.2-.8 1.2-.2 2.7-.2l3 .1 3.2.6 1-7.7q-.8-.3-2.3-.5-1.5-.3-3.3-.3Zm27.2 31.3q4.4 0 7.6-1.7 3.2-1.7 4.7-3.8l-3.9-4.2q-1.3 1.7-3.5 2.6-2.1.8-4.4.8-1.6 0-3-.5-1.3-.5-2.4-1.4-1-.9-1.6-2-.6-1-1-2.9h20.4v-3.3q0-3.4-1-6-.8-2.8-2.6-4.8t-4.3-3q-2.6-1-5.8-1-3.2 0-5.8 1-2.7 1.2-4.7 3.3-2 2-3 4.9-1 2.8-1 6.3v1.1q0 3 1 5.7 1.1 2.6 3.2 4.6 2 2 4.8 3.1 2.9 1.2 6.3 1.2Zm-.9-25q1.5 0 2.6.4 1.1.5 2 1.3.7.8 1.2 1.9.4 1 .4 2.3v.6h-12.7q.3-1.5.8-2.7.6-1.2 1.4-2 .8-.9 2-1.4 1-.4 2.3-.4Zm19.5 9v.6q0 3.4 1 6.2.9 2.8 2.7 4.8 1.8 2 4.5 3.2 2.6 1.2 6 1.2t6-1.2q2.7-1.1 4.5-3.2 1.8-2 2.7-4.8 1-2.8 1-6.2v-.5q0-3.3-1-6.1-.9-2.8-2.7-4.9-1.8-2-4.5-3.2-2.6-1.2-6-1.2t-6 1.2q-2.7 1.2-4.5 3.2-1.8 2-2.8 4.9-1 2.8-1 6Zm7.7.6v-.5q0-1.9.4-3.5.3-1.7 1.1-3 .8-1.2 2-1.9t3-.7q1.7 0 3 .7 1.2.7 2 2 .7 1.2 1 2.9.4 1.6.4 3.5v.5q0 2-.3 3.6-.4 1.6-1.1 2.9-.8 1.2-2 2-1.3.7-3 .7t-3-.8q-1.2-.7-2-2-.8-1.2-1.1-2.8-.4-1.7-.4-3.6Zm54.7 0v-6.2h-23.2v6.2Zm9.1-15.3v6.3h8.6v17.5h-8.6v6.3h24.5v-6.3h-8.1v-23.8Zm8-7.7q0 .9.3 1.6.4.8 1 1.3.5.6 1.3.9.9.3 1.9.3 2 0 3.2-1.2 1.3-1.1 1.3-3 0-1.7-1.3-2.9-1.2-1.1-3.2-1.1-1 0-1.9.3-.8.3-1.4.8-.5.5-.9 1.3-.3.8-.3 1.7Zm29 7.7H837v30.1h7v-22.5l.4-.7q.1-.3.4-.5.3-.4.6-.5.4-.2 1-.2l.8.1.7.5.4.8q.2.6.2 1.5v21.5h6.8v-23l.3-.5.5-.5.6-.3h1.6l.8.5q.3.3.4.9.2.5.2 1.4v21.5h7v-21.5q0-2.5-.4-4.2-.5-1.8-1.4-2.9-.9-1-2-1.6-1.2-.5-2.6-.5-1 0-2 .3t-1.6.8q-.6.4-1.1 1l-.9 1.1q-.2-.7-.6-1.2-.3-.6-.8-1-.6-.5-1.5-.7-.8-.3-1.8-.3-2.2 0-3.7 1.2-1.5 1-2.4 3Zm28.6 14.8v.6q0 3.3.8 6 .9 2.9 2.5 5 1.5 2 3.8 3.1 2.2 1.2 5 1.2 1.5 0 2.7-.4 1.2-.3 2.3-.8.7-.4 1.3-1 .6-.4 1.1-1v1.7q0 1.5-.4 2.8-.4 1.2-1.2 2-1 1-2.2 1.4-1.4.5-3 .5-1.1 0-2.1-.2t-2-.7q-.9-.4-1.7-1-.9-.7-1.6-1.5l-3.5 4.7q1 1.2 2.3 2.1 1.4 1 3 1.5 1.5.6 3 .9 1.6.3 3 .3 3.1 0 5.7-.9 2.7-.8 4.6-2.5 1.8-1.6 2.9-4 1-2.4 1-5.5v-29.1h-7l-.3 2.8-1.3-1.2q-.6-.6-1.4-1-1-.6-2.3-.9-1.3-.3-2.8-.3-2.8 0-5.1 1.1-2.3 1.2-3.8 3.2-1.6 2-2.5 4.9-.8 2.8-.8 6.2Zm7.7.6v-.6q0-1.9.4-3.5.4-1.7 1.2-3 .8-1.2 2-1.9t2.8-.7q1 0 1.7.2.8.1 1.4.5.8.3 1.3.9.6.6 1 1.4v12.7q-.3.7-.9 1.3l-1.2 1-1.5.5q-.8.2-1.8.2-1.7 0-2.8-.7-1.2-.7-2-2-.8-1.2-1.2-2.8-.4-1.6-.4-3.5Zm27.8 10.7 25-10.2v-6.3l-25-10.2v7.5l16 5.2 1.7.6-1.7.6-16 5.3Z" paint-order="stroke" style="white-space:pre"/>
</svg>